<svg id="visual" viewBox="0 0 900 600" width="900" height="600" xmlns="http://www.w3.org/2000/svg" xmlns:xlink="http://www.w3.org/1999/xlink" version="1.1"><g stroke-width="1" stroke-linejoin="bevel"><path d="M473 290L369 208L416 326Z" fill="#201f1f" stroke="#201f1f"></path><path d="M473 290L514 194L369 208Z" fill="#0a0808" stroke="#0a0808"></path><path d="M369 208L285 260L416 326Z" fill="#2f2e2e" stroke="#2f2e2e"></path><path d="M285 260L377 394L416 326Z" fill="#201f1f" stroke="#201f1f"></path><path d="M416 326L534 399L473 290Z" fill="#353434" stroke="#353434"></path><path d="M299 61L269 207L369 208Z" fill="#3a3939" stroke="#3a3939"></path><path d="M369 208L269 207L285 260Z" fill="#201f1f" stroke="#201f1f"></path><path d="M514 194L424 84L369 208Z" fill="#2f2e2e" stroke="#2f2e2e"></path><path d="M377 394L534 399L416 326Z" fill="#000000" stroke="#000000"></path><path d="M473 290L616 236L514 194Z" fill="#2a2929" stroke="#2a2929"></path><path d="M514 194L485 87L424 84Z" fill="#171616" stroke="#171616"></path><path d="M201 330L261 376L285 260Z" fill="#111010" stroke="#111010"></path><path d="M285 260L261 376L377 394Z" fill="#2f2e2e" stroke="#2f2e2e"></path><path d="M534 399L604 314L473 290Z" fill="#1b1a1a" stroke="#1b1a1a"></path><path d="M514 194L565 82L485 87Z" fill="#1b1a1a" stroke="#1b1a1a"></path><path d="M604 314L616 236L473 290Z" fill="#252424" stroke="#252424"></path><path d="M180 223L201 330L285 260Z" fill="#1b1a1a" stroke="#1b1a1a"></path><path d="M361 0L299 61L424 84Z" fill="#201f1f" stroke="#201f1f"></path><path d="M424 84L299 61L369 208Z" fill="#353434" stroke="#353434"></path><path d="M269 207L180 223L285 260Z" fill="#171616" stroke="#171616"></path><path d="M616 236L565 82L514 194Z" fill="#2a2929" stroke="#2a2929"></path><path d="M516 0L361 0L424 84Z" fill="#252424" stroke="#252424"></path><path d="M185 126L180 223L269 207Z" fill="#2a2929" stroke="#2a2929"></path><path d="M534 399L608 414L604 314Z" fill="#0a0808" stroke="#0a0808"></path><path d="M604 314L737 295L616 236Z" fill="#171616" stroke="#171616"></path><path d="M521 509L608 414L534 399Z" fill="#171616" stroke="#171616"></path><path d="M516 0L424 84L485 87Z" fill="#000000" stroke="#000000"></path><path d="M299 61L185 126L269 207Z" fill="#171616" stroke="#171616"></path><path d="M213 0L185 126L299 61Z" fill="#201f1f" stroke="#201f1f"></path><path d="M287 519L364 524L377 394Z" fill="#171616" stroke="#171616"></path><path d="M377 394L521 509L534 399Z" fill="#000000" stroke="#000000"></path><path d="M287 519L377 394L261 376Z" fill="#0a0808" stroke="#0a0808"></path><path d="M364 524L521 509L377 394Z" fill="#000000" stroke="#000000"></path><path d="M565 82L516 0L485 87Z" fill="#201f1f" stroke="#201f1f"></path><path d="M97 385L173 402L201 330Z" fill="#252424" stroke="#252424"></path><path d="M201 330L173 402L261 376Z" fill="#171616" stroke="#171616"></path><path d="M177 496L287 519L261 376Z" fill="#3a3939" stroke="#3a3939"></path><path d="M180 223L117 266L201 330Z" fill="#1b1a1a" stroke="#1b1a1a"></path><path d="M73 215L117 266L180 223Z" fill="#3a3939" stroke="#3a3939"></path><path d="M361 0L265 0L299 61Z" fill="#0a0808" stroke="#0a0808"></path><path d="M672 465L684 421L608 414Z" fill="#2a2929" stroke="#2a2929"></path><path d="M608 414L684 421L604 314Z" fill="#353434" stroke="#353434"></path><path d="M680 74L603 0L565 82Z" fill="#1b1a1a" stroke="#1b1a1a"></path><path d="M680 74L565 82L616 236Z" fill="#252424" stroke="#252424"></path><path d="M565 82L603 0L516 0Z" fill="#000000" stroke="#000000"></path><path d="M735 181L680 74L616 236Z" fill="#252424" stroke="#252424"></path><path d="M684 421L737 295L604 314Z" fill="#1b1a1a" stroke="#1b1a1a"></path><path d="M265 0L213 0L299 61Z" fill="#3a3939" stroke="#3a3939"></path><path d="M185 126L73 215L180 223Z" fill="#353434" stroke="#353434"></path><path d="M521 509L588 539L608 414Z" fill="#111010" stroke="#111010"></path><path d="M511 600L588 539L521 509Z" fill="#1b1a1a" stroke="#1b1a1a"></path><path d="M415 600L521 509L364 524Z" fill="#1b1a1a" stroke="#1b1a1a"></path><path d="M588 539L672 465L608 414Z" fill="#111010" stroke="#111010"></path><path d="M785 429L818 288L737 295Z" fill="#171616" stroke="#171616"></path><path d="M737 295L735 181L616 236Z" fill="#2f2e2e" stroke="#2f2e2e"></path><path d="M173 402L177 496L261 376Z" fill="#2f2e2e" stroke="#2f2e2e"></path><path d="M113 462L177 496L173 402Z" fill="#171616" stroke="#171616"></path><path d="M213 0L130 79L185 126Z" fill="#252424" stroke="#252424"></path><path d="M0 282L97 385L117 266Z" fill="#171616" stroke="#171616"></path><path d="M117 266L97 385L201 330Z" fill="#252424" stroke="#252424"></path><path d="M304 600L364 524L287 519Z" fill="#111010" stroke="#111010"></path><path d="M304 600L415 600L364 524Z" fill="#171616" stroke="#171616"></path><path d="M130 79L73 215L185 126Z" fill="#1b1a1a" stroke="#1b1a1a"></path><path d="M415 600L511 600L521 509Z" fill="#1b1a1a" stroke="#1b1a1a"></path><path d="M204 600L304 600L287 519Z" fill="#252424" stroke="#252424"></path><path d="M97 385L113 462L173 402Z" fill="#3a3939" stroke="#3a3939"></path><path d="M177 496L204 600L287 519Z" fill="#1b1a1a" stroke="#1b1a1a"></path><path d="M511 600L571 600L588 539Z" fill="#171616" stroke="#171616"></path><path d="M588 539L701 600L672 465Z" fill="#0a0808" stroke="#0a0808"></path><path d="M818 288L735 181L737 295Z" fill="#2f2e2e" stroke="#2f2e2e"></path><path d="M818 288L794 161L735 181Z" fill="#3a3939" stroke="#3a3939"></path><path d="M735 181L785 105L680 74Z" fill="#2a2929" stroke="#2a2929"></path><path d="M680 74L722 0L603 0Z" fill="#0a0808" stroke="#0a0808"></path><path d="M113 600L204 600L177 496Z" fill="#2a2929" stroke="#2a2929"></path><path d="M794 161L785 105L735 181Z" fill="#111010" stroke="#111010"></path><path d="M785 105L722 0L680 74Z" fill="#2a2929" stroke="#2a2929"></path><path d="M785 429L737 295L684 421Z" fill="#201f1f" stroke="#201f1f"></path><path d="M900 139L821 0L785 105Z" fill="#2f2e2e" stroke="#2f2e2e"></path><path d="M785 429L684 421L672 465Z" fill="#201f1f" stroke="#201f1f"></path><path d="M794 518L785 429L672 465Z" fill="#353434" stroke="#353434"></path><path d="M97 385L0 426L113 462Z" fill="#353434" stroke="#353434"></path><path d="M73 215L0 282L117 266Z" fill="#171616" stroke="#171616"></path><path d="M0 226L0 282L73 215Z" fill="#353434" stroke="#353434"></path><path d="M0 80L0 226L73 215Z" fill="#2f2e2e" stroke="#2f2e2e"></path><path d="M213 0L65 0L130 79Z" fill="#0a0808" stroke="#0a0808"></path><path d="M130 79L0 80L73 215Z" fill="#1b1a1a" stroke="#1b1a1a"></path><path d="M0 282L0 426L97 385Z" fill="#201f1f" stroke="#201f1f"></path><path d="M113 462L113 600L177 496Z" fill="#1b1a1a" stroke="#1b1a1a"></path><path d="M571 600L701 600L588 539Z" fill="#201f1f" stroke="#201f1f"></path><path d="M65 0L0 80L130 79Z" fill="#2a2929" stroke="#2a2929"></path><path d="M0 524L113 600L113 462Z" fill="#2a2929" stroke="#2a2929"></path><path d="M701 600L794 518L672 465Z" fill="#201f1f" stroke="#201f1f"></path><path d="M900 330L900 235L818 288Z" fill="#111010" stroke="#111010"></path><path d="M900 139L785 105L794 161Z" fill="#201f1f" stroke="#201f1f"></path><path d="M785 105L821 0L722 0Z" fill="#252424" stroke="#252424"></path><path d="M900 330L818 288L785 429Z" fill="#1b1a1a" stroke="#1b1a1a"></path><path d="M818 288L900 235L794 161Z" fill="#2f2e2e" stroke="#2f2e2e"></path><path d="M65 0L0 0L0 80Z" fill="#171616" stroke="#171616"></path><path d="M0 426L0 524L113 462Z" fill="#201f1f" stroke="#201f1f"></path><path d="M900 429L900 330L785 429Z" fill="#201f1f" stroke="#201f1f"></path><path d="M701 600L773 600L794 518Z" fill="#2f2e2e" stroke="#2f2e2e"></path><path d="M900 472L900 429L785 429Z" fill="#353434" stroke="#353434"></path><path d="M900 235L900 139L794 161Z" fill="#353434" stroke="#353434"></path><path d="M900 472L785 429L794 518Z" fill="#0a0808" stroke="#0a0808"></path><path d="M900 600L900 472L794 518Z" fill="#353434" stroke="#353434"></path><path d="M0 524L0 600L113 600Z" fill="#201f1f" stroke="#201f1f"></path><path d="M900 139L900 0L821 0Z" fill="#252424" stroke="#252424"></path><path d="M773 600L900 600L794 518Z" fill="#3a3939" stroke="#3a3939"></path></g></svg>